<svg xmlns="http://www.w3.org/2000/svg" viewBox="0 0 80 100" width="40" height="50">
  <rect x="10" y="25" width="60" height="65" rx="2" fill="#1A1B2F" stroke="#4A6CF7" stroke-width="1" opacity="0.8"/>
  <rect x="15" y="18" width="50" height="12" rx="2" fill="#2A2D4E" stroke="#4A6CF7" stroke-width="0.5"/>
  <rect x="30" y="12" width="20" height="10" rx="1" fill="#2A2D4E" stroke="#F5A623" stroke-width="0.5"/>
  <circle cx="35" cy="17" r="1.5" fill="#F5A623" opacity="0.8"/>
  <circle cx="40" cy="17" r="1.5" fill="#F5A623" opacity="0.5"/>
  <circle cx="45" cy="17" r="1.5" fill="#F5A623" opacity="0.8"/>
  <rect x="18" y="36" width="24" height="18" rx="1" fill="#2A2D4E"/>
  <rect x="20" y="38" width="20" height="14" fill="#7ECF8A" opacity="0.15" rx="1"/>
  <rect x="22" y="42" width="7" height="5" fill="#F5A623" opacity="0.4" rx="1"/>
  <rect x="33" y="42" width="5" height="5" fill="#FF6B6B" opacity="0.3" rx="1"/>
  <line x1="22" y1="50" x2="38" y2="50" stroke="#7ECF8A" stroke-width="0.5" opacity="0.5"/>
  <rect x="48" y="36" width="14" height="18" rx="1" fill="#2A2D4E"/>
  <rect x="50" y="38" width="10" height="14" fill="#4A6CF7" opacity="0.15" rx="1"/>
  <rect x="20" y="62" width="40" height="20" rx="1" fill="#2A2D4E"/>
  <text x="25" y="74" font-family="monospace" font-size="5" fill="#E8D5B7" opacity="0.5">art &amp; code</text>
  <text x="25" y="80" font-family="monospace" font-size="5" fill="#E8D5B7" opacity="0.3">in progress</text>
</svg>
