<svg xmlns="http://www.w3.org/2000/svg" viewBox="0 0 80 100" width="40" height="50">
  <rect x="10" y="20" width="60" height="70" rx="2" fill="#1A1B2F" stroke="#4A6CF7" stroke-width="1" opacity="0.8"/>
  <rect x="15" y="10" width="50" height="15" rx="2" fill="#2A2D4E" stroke="#4A6CF7" stroke-width="0.5" opacity="0.6"/>
  <rect x="35" y="6" width="10" height="8" rx="1" fill="#2A2D4E" stroke="#4A6CF7" stroke-width="0.5"/>
  <circle cx="40" cy="28" r="5" fill="none" stroke="#FF6B6B" stroke-width="1.5" opacity="0.8"/>
  <line x1="40" y1="25" x2="40" y2="31" stroke="#FF6B6B" stroke-width="1.5" opacity="0.8"/>
  <line x1="37" y1="28" x2="43" y2="28" stroke="#FF6B6B" stroke-width="1.5" opacity="0.8"/>
  <rect x="18" y="38" width="8" height="6" fill="#F5A623" opacity="0.4" rx="1"/>
  <rect x="32" y="38" width="8" height="6" fill="#F5A623" opacity="0.2" rx="1"/>
  <rect x="46" y="38" width="8" height="6" fill="#F5A623" opacity="0.4" rx="1"/>
  <rect x="18" y="52" width="8" height="6" fill="#F5A623" opacity="0.2" rx="1"/>
  <rect x="32" y="52" width="8" height="6" fill="#F5A623" opacity="0.4" rx="1"/>
  <rect x="46" y="52" width="8" height="6" fill="#F5A623" opacity="0.2" rx="1"/>
  <rect x="18" y="66" width="8" height="6" fill="#F5A623" opacity="0.4" rx="1"/>
  <rect x="32" y="66" width="8" height="6" fill="#F5A623" opacity="0.2" rx="1"/>
  <rect x="46" y="66" width="8" height="6" fill="#F5A623" opacity="0.4" rx="1"/>
</svg>
