<svg xmlns="http://www.w3.org/2000/svg" viewBox="0 0 80 100" width="40" height="50">
  <rect x="8" y="30" width="64" height="60" rx="2" fill="#1A1B2F" stroke="#4A6CF7" stroke-width="1" opacity="0.8"/>
  <rect x="8" y="30" width="64" height="15" fill="#2A2D4E" stroke="#4A6CF7" stroke-width="0.5"/>
  <rect x="20" y="22" width="40" height="12" rx="2" fill="#2A2D4E" stroke="#4A6CF7" stroke-width="0.5"/>
  <rect x="25" y="18" width="30" height="8" rx="1" fill="#1A1B2F" stroke="#4A6CF7" stroke-width="0.5"/>
  <text x="40" y="26" font-family="monospace" font-size="6" fill="#F5A623" text-anchor="middle" opacity="0.9">FIN</text>
  <rect x="18" y="52" width="8" height="6" fill="#F5A623" opacity="0.4" rx="1"/>
  <rect x="32" y="52" width="8" height="6" fill="#7ECF8A" opacity="0.3" rx="1"/>
  <rect x="46" y="52" width="8" height="6" fill="#F5A623" opacity="0.2" rx="1"/>
  <rect x="18" y="65" width="8" height="6" fill="#7ECF8A" opacity="0.3" rx="1"/>
  <rect x="32" y="65" width="8" height="6" fill="#F5A623" opacity="0.4" rx="1"/>
  <rect x="46" y="65" width="8" height="6" fill="#F5A623" opacity="0.2" rx="1"/>
  <rect x="18" y="78" width="8" height="6" fill="#F5A623" opacity="0.4" rx="1"/>
  <rect x="32" y="78" width="8" height="6" fill="#F5A623" opacity="0.3" rx="1"/>
  <rect x="46" y="78" width="8" height="6" fill="#7ECF8A" opacity="0.3" rx="1"/>
</svg>
