<svg xmlns="http://www.w3.org/2000/svg" viewBox="0 0 80 100" width="40" height="50">
  <rect x="10" y="35" width="60" height="55" rx="2" fill="#1A1B2F" stroke="#4A6CF7" stroke-width="1" opacity="0.8"/>
  <rect x="15" y="25" width="50" height="15" rx="2" fill="#2A2D4E" stroke="#4A6CF7" stroke-width="0.5"/>
  <rect x="25" y="20" width="30" height="10" rx="1" fill="#2A2D4E" stroke="#4A6CF7" stroke-width="0.5"/>
  <rect x="35" y="16" width="10" height="8" rx="1" fill="#1A1B2F" stroke="#F5A623" stroke-width="0.5"/>
  <circle cx="40" cy="20" r="2" fill="#F5A623" opacity="0.6"/>
  <rect x="18" y="45" width="8" height="6" rx="1" fill="#F5A623" opacity="0.3"/>
  <rect x="30" y="45" width="8" height="6" rx="1" fill="#F5A623" opacity="0.4"/>
  <rect x="42" y="45" width="8" height="6" rx="1" fill="#F5A623" opacity="0.2"/>
  <rect x="54" y="45" width="8" height="6" rx="1" fill="#F5A623" opacity="0.3"/>
  <rect x="18" y="58" width="8" height="6" rx="1" fill="#F5A623" opacity="0.2"/>
  <rect x="54" y="58" width="8" height="6" rx="1" fill="#F5A623" opacity="0.4"/>
  <rect x="30" y="58" width="8" height="6" rx="1" fill="#F5A623" opacity="0.3"/>
  <rect x="42" y="58" width="8" height="6" rx="1" fill="#F5A623" opacity="0.2"/>
  <rect x="25" y="72" width="30" height="12" rx="1" fill="#2A2D4E"/>
  <text x="40" y="81" font-family="monospace" font-size="6" fill="#E8D5B7" text-anchor="middle" opacity="0.7">VOTE</text>
</svg>
