<svg xmlns="http://www.w3.org/2000/svg" viewBox="0 0 1200 280" width="100%" height="auto">
  <defs>
    <linearGradient id="skyGradLight" x1="0" y1="0" x2="0" y2="1">
      <stop offset="0%" stop-color="#F5E6D3"/>
      <stop offset="50%" stop-color="#E8D5B7"/>
      <stop offset="100%" stop-color="#D4C4A8"/>
    </linearGradient>
    <linearGradient id="moonGlowLight" cx="50%" cy="50%" r="50%" fx="50%" fy="50%" gradientUnits="objectBoundingBox">
      <stop offset="0%" stop-color="#4A6CF7" stop-opacity="0.15"/>
      <stop offset="100%" stop-color="#4A6CF7" stop-opacity="0"/>
    </linearGradient>
    <linearGradient id="wallGradLight" x1="0" y1="0" x2="0" y2="1">
      <stop offset="0%" stop-color="#C4B49A"/>
      <stop offset="100%" stop-color="#B8A88E"/>
    </linearGradient>
    <linearGradient id="windowLightL" x1="0" y1="0" x2="0" y2="1">
      <stop offset="0%" stop-color="#4A6CF7" stop-opacity="0.7"/>
      <stop offset="100%" stop-color="#4A6CF7" stop-opacity="0.3"/>
    </linearGradient>
  </defs>
  <rect width="1200" height="280" fill="url(#skyGradLight)"/>
  
  <!-- Clouds -->
  <ellipse cx="200" cy="60" rx="50" ry="15" fill="#FFF5E6" opacity="0.5"/>
  <ellipse cx="650" cy="45" rx="60" ry="12" fill="#FFF5E6" opacity="0.4"/>
  <ellipse cx="1000" cy="70" rx="45" ry="10" fill="#FFF5E6" opacity="0.3"/>
  
  <!-- Sun -->
  <circle cx="200" cy="70" r="25" fill="#F5A623" opacity="0.3"/>
  <circle cx="200" cy="70" r="15" fill="#F5A623" opacity="0.5"/>
  <circle cx="200" cy="70" r="8" fill="#F5A623" opacity="0.8"/>
  
  <!-- Far background - small domes and minarets -->
  <rect x="80" y="140" width="2" height="100" fill="#C4B49A" opacity="0.5"/>
  <circle cx="81" cy="140" r="3" fill="#C4B49A" opacity="0.5"/>
  <rect x="160" y="120" width="2" height="120" fill="#C4B49A" opacity="0.4"/>
  <circle cx="161" cy="120" r="3" fill="#C4B49A" opacity="0.4"/>
  
  <!-- City Wall / Fortification -->
  <rect x="60" y="210" width="1080" height="70" fill="url(#wallGradLight)" opacity="0.6"/>
  <path d="M60 210 L90 195 L120 210 L150 195 L180 210 L210 195 L240 210 L270 195 L300 210 L330 195 L360 210 L390 195 L420 210 L450 195 L480 210 L510 195 L540 210 L570 195 L600 210 L630 195 L660 210 L690 195 L720 210 L750 195 L780 210 L810 195 L840 210 L870 195 L900 210 L930 195 L960 210 L990 195 L1020 210 L1050 195 L1080 210 L1110 195 L1140 210" stroke="#B8A88E" stroke-width="3" fill="none" opacity="0.4"/>
  
  <!-- Main Buildings -->
  <!-- Building 1: Tall modern tower (Fin-Mate) -->
  <rect x="180" y="130" width="35" height="140" fill="#C4B49A" rx="1"/>
  <rect x="183" y="135" width="8" height="6" fill="url(#windowLightL)" rx="0.5"/>
  <rect x="195" y="135" width="8" height="6" fill="url(#windowLightL)" rx="0.5"/>
  <rect x="207" y="135" width="6" height="6" fill="url(#windowLightL)" rx="0.5"/>
  <rect x="183" y="148" width="8" height="6" fill="url(#windowLightL)" rx="0.5"/>
  <rect x="195" y="148" width="8" height="6" fill="#4A6CF7" opacity="0.2" rx="0.5"/>
  <rect x="207" y="148" width="6" height="6" fill="url(#windowLightL)" rx="0.5"/>
  <rect x="183" y="161" width="8" height="6" fill="url(#windowLightL)" rx="0.5"/>
  <rect x="195" y="161" width="8" height="6" fill="url(#windowLightL)" rx="0.5"/>
  <rect x="207" y="161" width="6" height="6" fill="#4A6CF7" opacity="0.2" rx="0.5"/>
  <rect x="183" y="174" width="8" height="6" fill="#4A6CF7" opacity="0.2" rx="0.5"/>
  <rect x="195" y="174" width="8" height="6" fill="url(#windowLightL)" rx="0.5"/>
  <rect x="207" y="174" width="6" height="6" fill="url(#windowLightL)" rx="0.5"/>
  <rect x="183" y="187" width="8" height="6" fill="url(#windowLightL)" rx="0.5"/>
  <rect x="195" y="187" width="8" height="6" fill="url(#windowLightL)" rx="0.5"/>
  <rect x="207" y="187" width="6" height="6" fill="#4A6CF7" opacity="0.2" rx="0.5"/>
  <rect x="183" y="200" width="8" height="6" fill="url(#windowLightL)" rx="0.5"/>
  <rect x="195" y="200" width="8" height="6" fill="url(#windowLightL)" rx="0.5"/>
  <rect x="207" y="200" width="6" height="6" fill="url(#windowLightL)" rx="0.5"/>

  <!-- Building 2: Hospital/Clinic (MedConnect) -->
  <rect x="310" y="160" width="50" height="110" fill="#C4B49A" rx="2"/>
  <circle cx="335" cy="155" r="8" fill="none" stroke="#FF6B6B" stroke-width="2" opacity="0.6"/>
  <line x1="335" y1="150" x2="335" y2="160" stroke="#FF6B6B" stroke-width="2" opacity="0.6"/>
  <line x1="330" y1="155" x2="340" y2="155" stroke="#FF6B6B" stroke-width="2" opacity="0.6"/>
  <rect x="318" y="168" width="7" height="5" fill="url(#windowLightL)" rx="0.5"/>
  <rect x="330" y="168" width="7" height="5" fill="url(#windowLightL)" rx="0.5"/>
  <rect x="342" y="168" width="7" height="5" fill="url(#windowLightL)" rx="0.5"/>
  <rect x="318" y="180" width="7" height="5" fill="url(#windowLightL)" rx="0.5"/>
  <rect x="330" y="180" width="7" height="5" fill="#FF6B6B" opacity="0.2" rx="0.5"/>
  <rect x="342" y="180" width="7" height="5" fill="url(#windowLightL)" rx="0.5"/>
  <rect x="318" y="192" width="7" height="5" fill="url(#windowLightL)" rx="0.5"/>
  <rect x="330" y="192" width="7" height="5" fill="url(#windowLightL)" rx="0.5"/>
  <rect x="342" y="192" width="7" height="5" fill="url(#windowLightL)" rx="0.5"/>
  
  <!-- Building 3: Dome building (Heritage / Civic) -->
  <rect x="440" y="150" width="55" height="120" fill="#D4C4A8" rx="2"/>
  <path d="M455 150 Q467 120 480 150" fill="#C4B49A"/>
  <rect x="448" y="158" width="8" height="6" fill="url(#windowLightL)" rx="0.5"/>
  <rect x="462" y="158" width="8" height="6" fill="url(#windowLightL)" rx="0.5"/>
  <rect x="476" y="158" width="8" height="6" fill="url(#windowLightL)" rx="0.5"/>
  <rect x="448" y="172" width="8" height="6" fill="url(#windowLightL)" rx="0.5"/>
  <rect x="462" y="172" width="8" height="6" fill="url(#windowLightL)" rx="0.5"/>
  <rect x="476" y="172" width="8" height="6" fill="url(#windowLightL)" rx="0.5"/>
  
  <!-- Building 4: Tall slender tower with dome (Minaret-inspired) -->
  <rect x="570" y="100" width="25" height="170" fill="#C4B49A" rx="1"/>
  <circle cx="582" cy="95" r="6" fill="#C4B49A"/>
  <circle cx="582" cy="90" r="3" fill="#F5A623" opacity="0.6"/>
  <rect x="573" y="110" width="6" height="5" fill="url(#windowLightL)" rx="0.5"/>
  <rect x="583" y="110" width="6" height="5" fill="url(#windowLightL)" rx="0.5"/>
  <rect x="573" y="125" width="6" height="5" fill="#4A6CF7" opacity="0.2" rx="0.5"/>
  <rect x="583" y="125" width="6" height="5" fill="url(#windowLightL)" rx="0.5"/>
  <rect x="573" y="140" width="6" height="5" fill="url(#windowLightL)" rx="0.5"/>
  <rect x="583" y="140" width="6" height="5" fill="url(#windowLightL)" rx="0.5"/>
  <rect x="573" y="155" width="6" height="5" fill="url(#windowLightL)" rx="0.5"/>
  <rect x="583" y="155" width="6" height="5" fill="#4A6CF7" opacity="0.2" rx="0.5"/>
  <rect x="573" y="170" width="6" height="5" fill="url(#windowLightL)" rx="0.5"/>
  <rect x="583" y="170" width="6" height="5" fill="url(#windowLightL)" rx="0.5"/>
  
  <!-- Building 5: Game theater (Mafia Attack) -->
  <rect x="680" y="170" width="60" height="100" fill="#C4B49A" rx="3"/>
  <path d="M685 170 Q710 155 735 170" fill="#C4B49A"/>
  <rect x="690" y="180" width="12" height="8" fill="#FF6B6B" opacity="0.2" rx="1"/>
  <rect x="712" y="180" width="12" height="8" fill="url(#windowLightL)" rx="1"/>
  <rect x="690" y="196" width="12" height="8" fill="url(#windowLightL)" rx="1"/>
  <rect x="712" y="196" width="12" height="8" fill="#FF6B6B" opacity="0.2" rx="1"/>
  <rect x="690" y="212" width="12" height="8" fill="url(#windowLightL)" rx="1"/>
  <rect x="712" y="212" width="12" height="8" fill="url(#windowLightL)" rx="1"/>
  
  <!-- Building 6: Art studio / Creative space -->
  <rect x="820" y="140" width="40" height="130" fill="#D4C4A8" rx="2"/>
  <rect x="825" y="120" width="30" height="22" fill="#C4B49A" rx="1"/>
  <rect x="830" y="125" width="20" height="12" fill="#7ECF8A" opacity="0.3" rx="1"/>
  <rect x="828" y="150" width="7" height="5" fill="url(#windowLightL)" rx="0.5"/>
  <rect x="840" y="150" width="7" height="5" fill="url(#windowLightL)" rx="0.5"/>
  <rect x="828" y="163" width="7" height="5" fill="url(#windowLightL)" rx="0.5"/>
  <rect x="840" y="163" width="7" height="5" fill="#7ECF8A" opacity="0.3" rx="0.5"/>
  <rect x="828" y="176" width="7" height="5" fill="url(#windowLightL)" rx="0.5"/>
  <rect x="840" y="176" width="7" height="5" fill="url(#windowLightL)" rx="0.5"/>
  
  <!-- Building 7: Observatory/Research dome -->
  <rect x="940" y="160" width="40" height="110" fill="#C4B49A" rx="2"/>
  <path d="M950 160 Q960 140 970 160" fill="#4A6CF7" opacity="0.3"/>
  <rect x="948" y="168" width="8" height="6" fill="url(#windowLightL)" rx="0.5"/>
  <rect x="962" y="168" width="8" height="6" fill="url(#windowLightL)" rx="0.5"/>
  <rect x="948" y="182" width="8" height="6" fill="#4A6CF7" opacity="0.2" rx="0.5"/>
  <rect x="962" y="182" width="8" height="6" fill="url(#windowLightL)" rx="0.5"/>
  <rect x="948" y="196" width="8" height="6" fill="url(#windowLightL)" rx="0.5"/>
  <rect x="962" y="196" width="8" height="6" fill="url(#windowLightL)" rx="0.5"/>
  
  <!-- Ground line -->
  <line x1="50" y1="270" x2="1150" y2="270" stroke="#4A6CF7" stroke-width="1" opacity="0.2"/>
  
  <!-- Title text -->
  <text x="600" y="260" font-family="Courier New, monospace" font-size="14" fill="#4A6CF7" text-anchor="middle" opacity="0.5" letter-spacing="6">THE BLUE CITY WORKSHOP</text>
</svg>
