<svg xmlns="http://www.w3.org/2000/svg" viewBox="0 0 620 160" width="100%" height="auto">
  <defs>
    <linearGradient id="meterBg" x1="0" y1="0" x2="0" y2="1"><stop offset="0%" stop-color="#1A1D23"/><stop offset="100%" stop-color="#0A0B0C"/></linearGradient>
    <linearGradient id="meterBar" x1="0" y1="0" x2="1" y2="0"><stop offset="0%" stop-color="#D45500"/><stop offset="100%" stop-color="#C4A35A"/></linearGradient>
    <linearGradient id="meterBarGreen" x1="0" y1="0" x2="1" y2="0"><stop offset="0%" stop-color="#00A86B"/><stop offset="100%" stop-color="#7ECF8A"/></linearGradient>
    <linearGradient id="meterBarBlue" x1="0" y1="0" x2="1" y2="0"><stop offset="0%" stop-color="#4A90D9"/><stop offset="100%" stop-color="#8BB8F0"/></linearGradient>
    <linearGradient id="meterBarGold" x1="0" y1="0" x2="1" y2="0"><stop offset="0%" stop-color="#C4A35A"/><stop offset="100%" stop-color="#E8D5B7"/></linearGradient>
    <filter id="glow"><feGaussianBlur stdDeviation="2"/><feMerge><feMergeNode/><feMergeNode in="SourceGraphic"/></feMerge></filter>
  </defs>
  <rect x="0" y="0" width="620" height="160" rx="6" fill="url(#meterBg)" stroke="#2A2F38" stroke-width="1.5"/>
  <rect x="210" y="6" width="200" height="16" rx="2" fill="#0A0B0C" stroke="#8B7355" stroke-width="0.5"/>
  <text x="310" y="18" font-family="monospace" font-size="8" fill="#C4A35A" text-anchor="middle" letter-spacing="4" opacity="0.8">LIVE METER PANEL</text>
  <g transform="translate(22,30)">
    <rect x="0" y="0" width="135" height="55" rx="3" fill="#0A0B0C" stroke="#2A2F38" stroke-width="0.5"/>
    <text x="8" y="14" font-family="monospace" font-size="7" fill="#8B7355" letter-spacing="1">LINES OPEN</text>
    <rect x="8" y="20" width="115" height="8" rx="4" fill="#1A1D23" stroke="#2A2F38" stroke-width="0.5"/>
    <rect x="8" y="20" width="20" height="8" rx="4" fill="url(#meterBar)" opacity="0.9"/>
    <text x="8" y="44" font-family="monospace" font-size="18" fill="#D45500" filter="url(#glow)">10</text>
    <text x="115" y="44" font-family="monospace" font-size="7" fill="#5A4A35" text-anchor="end">repos</text>
  </g>
  <g transform="translate(169,30)">
    <rect x="0" y="0" width="135" height="55" rx="3" fill="#0A0B0C" stroke="#2A2F38" stroke-width="0.5"/>
    <text x="8" y="14" font-family="monospace" font-size="7" fill="#8B7355" letter-spacing="1">SIGNALS</text>
    <rect x="8" y="20" width="115" height="8" rx="4" fill="#1A1D23" stroke="#2A2F38" stroke-width="0.5"/>
    <rect x="8" y="20" width="0" height="8" rx="4" fill="url(#meterBarGold)" opacity="0.9"/>
    <text x="8" y="44" font-family="monospace" font-size="18" fill="#C4A35A" filter="url(#glow)">00</text>
    <text x="115" y="44" font-family="monospace" font-size="7" fill="#5A4A35" text-anchor="end">stars</text>
  </g>
  <g transform="translate(316,30)">
    <rect x="0" y="0" width="135" height="55" rx="3" fill="#0A0B0C" stroke="#2A2F38" stroke-width="0.5"/>
    <text x="8" y="14" font-family="monospace" font-size="7" fill="#8B7355" letter-spacing="1">ROUTES</text>
    <rect x="8" y="20" width="115" height="8" rx="4" fill="#1A1D23" stroke="#2A2F38" stroke-width="0.5"/>
    <rect x="8" y="20" width="2" height="8" rx="4" fill="url(#meterBarBlue)" opacity="0.9"/>
    <text x="8" y="44" font-family="monospace" font-size="18" fill="#4A90D9" filter="url(#glow)">01</text>
    <text x="115" y="44" font-family="monospace" font-size="7" fill="#5A4A35" text-anchor="end">followers</text>
  </g>
  <g transform="translate(463,30)">
    <rect x="0" y="0" width="135" height="55" rx="3" fill="#0A0B0C" stroke="#2A2F38" stroke-width="0.5"/>
    <text x="8" y="14" font-family="monospace" font-size="7" fill="#8B7355" letter-spacing="1">BANDWIDTH</text>
    <rect x="8" y="20" width="115" height="8" rx="4" fill="#1A1D23" stroke="#2A2F38" stroke-width="0.5"/>
    <rect x="8" y="20" width="0" height="8" rx="4" fill="url(#meterBarGreen)" opacity="0.9"/>
    <text x="8" y="44" font-family="monospace" font-size="18" fill="#00A86B" filter="url(#glow)">00</text>
    <text x="115" y="44" font-family="monospace" font-size="7" fill="#5A4A35" text-anchor="end">forks</text>
  </g>
  <rect x="22" y="95" width="576" height="1" fill="#2A2F38" opacity="0.5"/>
  <g transform="translate(22,105)"><text x="0" y="10" font-family="monospace" font-size="7" fill="#8B7355">LATEST:</text><text x="55" y="10" font-family="monospace" font-size="7" fill="#E8D5B7">radheshyam-bhati</text></g>
  <g transform="translate(22,122)"><text x="0" y="10" font-family="monospace" font-size="7" fill="#8B7355">SPECTRUM:</text><text x="65" y="10" font-family="monospace" font-size="7" fill="#E8D5B7">HTML, JavaScript, TypeScript</text></g>
  <circle cx="585" cy="108" r="3" fill="#00A86B" filter="url(#glow)"/>
  <text x="575" y="112" font-family="monospace" font-size="6" fill="#5A4A35" text-anchor="end">LIVE</text>
  <g transform="translate(22,140)"><text x="0" y="10" font-family="monospace" font-size="6" fill="#5A4A35">UPDATED: 2026-07-21 09:24 UTC</text></g>
</svg>
