<svg xmlns="http://www.w3.org/2000/svg" viewBox="0 0 1200 300" width="100%" height="auto">
  <defs>
    <linearGradient id="bgGradLight" x1="0" y1="0" x2="0" y2="1">
      <stop offset="0%" stop-color="#F5F0E8"/>
      <stop offset="40%" stop-color="#E8E0D0"/>
      <stop offset="100%" stop-color="#F5F0E8"/>
    </linearGradient>
    <linearGradient id="panelGradLight" x1="0" y1="0" x2="0" y2="1">
      <stop offset="0%" stop-color="#D4C8B0"/>
      <stop offset="100%" stop-color="#C8BCA4"/>
    </linearGradient>
    <radialGradient id="amberGlowLight" cx="50%" cy="50%" r="50%">
      <stop offset="0%" stop-color="#D45500" stop-opacity="0.4"/>
      <stop offset="100%" stop-color="#D45500" stop-opacity="0"/>
    </radialGradient>
    <radialGradient id="greenGlowLight" cx="50%" cy="50%" r="50%">
      <stop offset="0%" stop-color="#00A86B" stop-opacity="0.3"/>
      <stop offset="100%" stop-color="#00A86B" stop-opacity="0"/>
    </radialGradient>
    <radialGradient id="blueGlowLight" cx="50%" cy="50%" r="50%">
      <stop offset="0%" stop-color="#4A90D9" stop-opacity="0.3"/>
      <stop offset="100%" stop-color="#4A90D9" stop-opacity="0"/>
    </radialGradient>
  </defs>
  <rect width="1200" height="300" fill="url(#bgGradLight)"/>
  
  <!-- Top decorative band -->
  <rect x="0" y="0" width="1200" height="4" fill="#8B7355" opacity="0.3"/>
  <rect x="0" y="296" width="1200" height="4" fill="#8B7355" opacity="0.3"/>
  
  <!-- Switchboard Main Panel -->
  <rect x="80" y="30" width="1040" height="240" rx="4" fill="url(#panelGradLight)" stroke="#8B7355" stroke-width="1.5"/>
  
  <!-- Panel inner border -->
  <rect x="90" y="40" width="1020" height="220" rx="2" fill="none" stroke="#8B7355" stroke-width="0.5" opacity="0.5"/>
  
  <!-- Title plate -->
  <rect x="420" y="44" width="360" height="24" rx="2" fill="#C8BCA4" stroke="#8B7355" stroke-width="0.5"/>
  <text x="600" y="61" font-family="'Courier New', monospace" font-size="12" fill="#5A4A35" text-anchor="middle" letter-spacing="6" opacity="0.8">●●● THE SWITCHBOARD ●●●</text>
  
  <!-- Jack Field Rows - Row 1 -->
  <g transform="translate(140, 85)">
    <rect x="0" y="0" width="60" height="20" rx="10" fill="#C8BCA4" stroke="#8B7355" stroke-width="1"/>
    <rect x="2" y="2" width="16" height="16" rx="8" fill="#F5F0E8" stroke="#8B7355" stroke-width="0.5"/>
    <circle cx="39" cy="10" r="4" fill="#D45500"/>
    <circle cx="39" cy="10" r="8" fill="url(#amberGlowLight)"/>
    <text x="52" y="14" font-family="monospace" font-size="7" fill="#8B7355" text-anchor="end">L1</text>
    
    <rect x="80" y="0" width="60" height="20" rx="10" fill="#C8BCA4" stroke="#8B7355" stroke-width="1"/>
    <rect x="2" y="2" width="16" height="16" rx="8" fill="#F5F0E8" stroke="#8B7355" stroke-width="0.5"/>
    <circle cx="39" cy="10" r="4" fill="#00A86B"/>
    <circle cx="39" cy="10" r="8" fill="url(#greenGlowLight)"/>
    <text x="52" y="14" font-family="monospace" font-size="7" fill="#8B7355" text-anchor="end">L2</text>
    
    <rect x="160" y="0" width="60" height="20" rx="10" fill="#C8BCA4" stroke="#8B7355" stroke-width="1"/>
    <rect x="2" y="2" width="16" height="16" rx="8" fill="#F5F0E8" stroke="#8B7355" stroke-width="0.5"/>
    <circle cx="39" cy="10" r="4" fill="#4A90D9"/>
    <circle cx="39" cy="10" r="8" fill="url(#blueGlowLight)"/>
    <text x="52" y="14" font-family="monospace" font-size="7" fill="#8B7355" text-anchor="end">L3</text>
    
    <rect x="240" y="0" width="60" height="20" rx="10" fill="#C8BCA4" stroke="#8B7355" stroke-width="1"/>
    <rect x="2" y="2" width="16" height="16" rx="8" fill="#F5F0E8" stroke="#8B7355" stroke-width="0.5"/>
    <circle cx="39" cy="10" r="4" fill="#CC3333"/>
    <text x="52" y="14" font-family="monospace" font-size="7" fill="#8B7355" text-anchor="end">L4</text>
    
    <rect x="320" y="0" width="60" height="20" rx="10" fill="#C8BCA4" stroke="#8B7355" stroke-width="1"/>
    <rect x="2" y="2" width="16" height="16" rx="8" fill="#F5F0E8" stroke="#8B7355" stroke-width="0.5"/>
    <circle cx="39" cy="10" r="4" fill="#D45500"/>
    <circle cx="39" cy="10" r="8" fill="url(#amberGlowLight)"/>
    <text x="52" y="14" font-family="monospace" font-size="7" fill="#8B7355" text-anchor="end">L5</text>
  </g>
  
  <!-- Jack Field Rows - Row 2 -->
  <g transform="translate(140, 115)">
    <rect x="0" y="0" width="60" height="20" rx="10" fill="#C8BCA4" stroke="#8B7355" stroke-width="1"/>
    <rect x="2" y="2" width="16" height="16" rx="8" fill="#F5F0E8" stroke="#8B7355" stroke-width="0.5"/>
    <circle cx="39" cy="10" r="4" fill="#00A86B"/>
    <text x="52" y="14" font-family="monospace" font-size="7" fill="#8B7355" text-anchor="end">L6</text>
    
    <rect x="80" y="0" width="60" height="20" rx="10" fill="#C8BCA4" stroke="#8B7355" stroke-width="1"/>
    <rect x="2" y="2" width="16" height="16" rx="8" fill="#F5F0E8" stroke="#8B7355" stroke-width="0.5"/>
    <circle cx="39" cy="10" r="4" fill="#D45500"/>
    <circle cx="39" cy="10" r="8" fill="url(#amberGlowLight)"/>
    <text x="52" y="14" font-family="monospace" font-size="7" fill="#8B7355" text-anchor="end">L7</text>
    
    <rect x="160" y="0" width="60" height="20" rx="10" fill="#C8BCA4" stroke="#8B7355" stroke-width="1"/>
    <rect x="2" y="2" width="16" height="16" rx="8" fill="#F5F0E8" stroke="#8B7355" stroke-width="0.5"/>
    <circle cx="39" cy="10" r="4" fill="#00A86B"/>
    <text x="52" y="14" font-family="monospace" font-size="7" fill="#8B7355" text-anchor="end">L8</text>
    
    <rect x="240" y="0" width="60" height="20" rx="10" fill="#C8BCA4" stroke="#8B7355" stroke-width="1"/>
    <rect x="2" y="2" width="16" height="16" rx="8" fill="#F5F0E8" stroke="#8B7355" stroke-width="0.5"/>
    <circle cx="39" cy="10" r="4" fill="#00A86B"/>
    <text x="52" y="14" font-family="monospace" font-size="7" fill="#8B7355" text-anchor="end">L9</text>
    
    <rect x="320" y="0" width="60" height="20" rx="10" fill="#C8BCA4" stroke="#8B7355" stroke-width="1"/>
    <rect x="2" y="2" width="16" height="16" rx="8" fill="#F5F0E8" stroke="#8B7355" stroke-width="0.5"/>
    <circle cx="39" cy="10" r="4" fill="#4A90D9"/>
    <circle cx="39" cy="10" r="8" fill="url(#blueGlowLight)"/>
    <text x="52" y="14" font-family="monospace" font-size="7" fill="#8B7355" text-anchor="end">L10</text>
  </g>
  
  <!-- Patch Cables -->
  <path d="M187 95 C200 90 210 70 230 75 C250 80 240 125 260 125" fill="none" stroke="#D45500" stroke-width="2" opacity="0.4"/>
  <path d="M307 95 C320 100 330 70 350 75" fill="none" stroke="#4A90D9" stroke-width="2" opacity="0.4"/>
  <path d="M267 125 C280 130 290 200 310 195 C330 190 340 130 350 130" fill="none" stroke="#D45500" stroke-width="2" opacity="0.3"/>
  
  <!-- Label plates -->
  <g transform="translate(500, 85)">
    <rect x="0" y="0" width="180" height="28" rx="2" fill="#F5F0E8" stroke="#8B7355" stroke-width="0.5" opacity="0.8"/>
    <text x="10" y="18" font-family="monospace" font-size="8" fill="#5A4A35" opacity="0.7">CONNECTIONS ACTIVE: 04</text>
  </g>
  <g transform="translate(500, 120)">
    <rect x="0" y="0" width="180" height="28" rx="2" fill="#F5F0E8" stroke="#8B7355" stroke-width="0.5" opacity="0.8"/>
    <text x="10" y="18" font-family="monospace" font-size="8" fill="#5A4A35" opacity="0.7">LINES OPEN: 10</text>
  </g>
  
  <!-- Rotary phone -->
  <g transform="translate(750, 85)">
    <rect x="0" y="10" width="100" height="65" rx="8" fill="#E8E0D0" stroke="#8B7355" stroke-width="1"/>
    <rect x="5" y="15" width="90" height="55" rx="6" fill="#F5F0E8"/>
    <circle cx="50" cy="42" r="22" fill="#D4C8B0" stroke="#8B7355" stroke-width="1.5"/>
    <circle cx="50" cy="42" r="14" fill="#F5F0E8"/>
    <circle cx="50" cy="42" r="3" fill="#8B7355"/>
    <rect x="68" y="35" width="3" height="4" fill="#8B7355"/>
    <rect x="5" y="5" width="90" height="8" rx="3" fill="#D4C8B0" stroke="#8B7355" stroke-width="0.5"/>
    <rect x="15" y="-15" width="70" height="12" rx="6" fill="#E8E0D0" stroke="#8B7355" stroke-width="0.5"/>
    <circle cx="22" cy="-9" r="6" fill="#F5F0E8" stroke="#8B7355" stroke-width="0.5"/>
    <circle cx="78" cy="-9" r="6" fill="#F5F0E8" stroke="#8B7355" stroke-width="0.5"/>
    <path d="M50 10 C50 20 40 22 40 30 C40 38 60 40 60 48" fill="none" stroke="#8B7355" stroke-width="1.5" opacity="0.5"/>
  </g>
  
  <!-- Operator badge -->
  <g transform="translate(920, 85)">
    <rect x="0" y="0" width="160" height="65" rx="3" fill="#F5F0E8" stroke="#8B7355" stroke-width="0.5"/>
    <text x="12" y="20" font-family="monospace" font-size="7" fill="#8B7355">OPERATOR:</text>
    <text x="12" y="38" font-family="monospace" font-size="10" fill="#3A2A1A">Radheshyam Bhati</text>
    <text x="12" y="54" font-family="monospace" font-size="7" fill="#5A4A35" opacity="0.6">STATION: Jodhpur · INDIA</text>
  </g>
  
  <!-- Bottom status bar -->
  <rect x="140" y="215" width="940" height="2" fill="#8B7355" opacity="0.3"/>
  <text x="145" y="237" font-family="monospace" font-size="7" fill="#8B7355" opacity="0.6">SYSTEM: ONLINE  |  CONNECTIONS: 10  |  OPERATOR: PRESENT  |  STATUS: ⬟ ACCEPTING CALLS</text>
</svg>
